<svg xmlns="http://www.w3.org/2000/svg" version="1.1" viewBox="-5.0 -10.0 110.0 135.0">
 <g>
  <path d="m49.898 43.43c-8.3203 0-15.09-6.7695-15.09-15.09 0-8.3203 6.7695-15.09 15.09-15.09 8.3203 0 15.09 6.7695 15.09 15.09 0 8.3203-6.7695 15.09-15.09 15.09zm0-28.18c-7.2188 0-13.09 5.8711-13.09 13.09s5.8711 13.09 13.09 13.09 13.09-5.8711 13.09-13.09-5.8711-13.09-13.09-13.09z"/>
  <path d="m49.898 45.988c-9.7305 0-17.641-7.9102-17.641-17.641 0-9.7305 7.9102-17.641 17.641-17.641 9.7305 0 17.641 7.9102 17.641 17.641 0 9.7305-7.9102 17.641-17.641 17.641zm0-33.289c-8.6289 0-15.641 7.0195-15.641 15.641s7.0195 15.641 15.641 15.641c8.6211 0 15.641-7.0195 15.641-15.641s-7.0195-15.641-15.641-15.641z"/>
  <path d="m48.691 21c-0.46094 0-0.87891-0.32031-0.98047-0.78906-0.10938-0.53906 0.23047-1.0703 0.76953-1.1914l0.089843-0.019531c0.58984-0.17969 1.2812 0.30078 1.2812 0.96094 0 0.48828-0.35156 0.91016-0.82812 0.98828l-0.12891 0.03125c-0.070312 0.011719-0.14062 0.019531-0.21094 0.019531z"/>
  <path d="m49.801 30.43h-0.070312c-3.3984-0.23047-5.9688-2.7305-5.9688-5.8203 0-2.6797 1.9414-4.9805 4.7188-5.5781 0.53906-0.12109 1.0703 0.23047 1.1914 0.76953 0.12109 0.53906-0.23047 1.0703-0.76953 1.1914-1.8516 0.39844-3.1484 1.8906-3.1484 3.6211 0 2.0195 1.7617 3.6602 4.1016 3.8203 0.55078 0.039062 0.96875 0.51172 0.92969 1.0703-0.039062 0.53125-0.48047 0.92969-1 0.92969z"/>
  <path d="m49.961 28.219h-0.070313c-2.0781-0.14844-3.6406-1.6914-3.6406-3.5898 0-1.8984 1.6602-3.5312 3.7188-3.5508 0.35938-0.019531 1.9492-0.019531 3.1484 1.3594l0.28906-0.10938c-0.85156-0.92969-1.8516-1.2812-2.6211-1.3984-0.55078-0.089844-0.92188-0.60156-0.82812-1.1484 0.089844-0.55078 0.60938-0.92188 1.1484-0.82812 1.1602 0.19141 3.3203 0.87109 4.7383 3.3516 0.14062 0.25 0.17188 0.55859 0.070312 0.82812-0.10156 0.28125-0.30859 0.48828-0.57812 0.60156l-2.2305 0.85156c-0.46094 0.17187-0.98047-0.011719-1.2188-0.44141-0.64062-1.1211-1.6797-1.0781-1.7891-1.0703-1.0508 0-1.8398 0.69922-1.8398 1.5508s0.75 1.5195 1.7812 1.6016c0.55078 0.039063 0.96875 0.51953 0.92969 1.0703-0.039062 0.53125-0.48047 0.92969-1 0.92969z"/>
  <path d="m50.941 20.941h-0.14062l-0.10156-0.019531c-0.55078-0.078125-0.92188-0.58984-0.83984-1.1289 0.078125-0.55078 0.58984-0.92969 1.1289-0.83984h0.058594c0.53906 0.089844 0.94141 0.60156 0.85938 1.1406-0.078125 0.5-0.48047 0.85156-0.96094 0.85156z"/>
  <path d="m48.879 37.711c-0.050781 0-0.10156 0-0.14844-0.011719-2.0117-0.30859-3.6992-1.5-4.7617-3.3594-0.14062-0.25-0.17188-0.55078-0.078125-0.82031 0.089844-0.26953 0.30078-0.48828 0.57031-0.60156l2.1016-0.85156c0.25-0.10156 0.53125-0.10156 0.76953 0.011719 0.25 0.10938 0.44141 0.30859 0.53125 0.55859 0.44922 1.1914 1.6094 1.1094 1.8398 1.0781h0.14062c0.96094 0 1.75-0.71875 1.75-1.6094s-0.80859-1.6211-1.8398-1.6797c-0.55078-0.03125-0.96875-0.5-0.94141-1.0508 0.03125-0.55078 0.51172-0.96875 1.0586-0.94141 2.0898 0.12109 3.7305 1.7305 3.7305 3.6797s-1.6406 3.5703-3.6797 3.6094c-0.87109 0.10938-2.4609-0.12109-3.4297-1.4492l-0.10156 0.039062c0.85938 0.96094 1.8711 1.3086 2.6406 1.4219 0.55078 0.078125 0.92188 0.58984 0.83984 1.1406-0.078125 0.48828-0.5 0.85156-0.98828 0.85156z"/>
  <path d="m50.852 37.68c-0.48047 0-0.91016-0.35156-0.98828-0.83984-0.089843-0.53906 0.28125-1.0586 0.82812-1.1484 1.9414-0.30859 3.3516-1.8516 3.3516-3.6484 0-2.0195-1.7891-3.6602-4.1602-3.8203-0.55078-0.039062-0.96875-0.51953-0.92969-1.0703 0.039063-0.55078 0.51172-0.96094 1.0703-0.92969 3.4297 0.23828 6.0195 2.7383 6.0195 5.8203 0 2.7891-2.1211 5.1602-5.0312 5.6289-0.050781 0-0.10938 0.011719-0.16016 0.011719z"/>
  <path d="m48.859 20.961c-0.48047 0-0.89844-0.33984-0.98047-0.82813-0.019531-0.089843-0.019531-0.17969 0-0.26953v-2.4297c0-0.51953 0.39844-0.94922 0.92188-1l1.9805-0.17188c0.28125-0.019531 0.55078 0.070312 0.76172 0.26172 0.21094 0.19141 0.32031 0.46094 0.32031 0.73828v2.5586 0.25c-0.089843 0.53906-0.58984 0.91016-1.1289 0.82813-0.42969-0.058594-0.76172-0.39063-0.83984-0.80078-0.058593 0.41016-0.37109 0.75-0.80078 0.82812h-0.011719c-0.058593 0.011719-0.10938 0.019531-0.17188 0.019531z"/>
  <path d="m48.859 20.969c-0.55078 0-1-0.44141-1-1s0.44922-1.0117 1-1.0117 1 0.44922 1 1-0.44922 1-1 1z"/>
  <path d="m48.871 40.422c-0.25 0-0.48828-0.089844-0.67969-0.26953-0.19922-0.19141-0.32031-0.46094-0.32031-0.73047v-2.7109c0-0.55078 0.44922-1 1-1 0.5 0 0.91016 0.37109 0.98828 0.83984 0.058594-0.48828 0.48047-0.87891 0.98828-0.87891 0.55078 0 1 0.44922 1 1v2.5898c0 0.51953-0.39844 0.96094-0.92188 1l-1.9805 0.16016h-0.078124z"/>
  <path d="m71.219 69.789c-0.26953 0-0.51953-0.10937-0.71094-0.28906l-14.699-14.809c-0.39062-0.39062-0.39062-1.0195 0-1.4102l18.078-18.199c0.37891-0.37891 1.0391-0.37891 1.4219 0l14.711 14.809c0.39062 0.39062 0.39062 1.0195 0 1.4102l-18.09 18.199c-0.19141 0.19141-0.44141 0.28906-0.71094 0.28906zm-13.289-15.809 13.289 13.391 16.68-16.781-13.301-13.391-16.672 16.781z"/>
  <path d="m27.578 69.789c-0.26953 0-0.51953-0.10937-0.71094-0.28906l-18.078-18.199c-0.39062-0.39062-0.39062-1.0195 0-1.4102l14.711-14.809c0.37891-0.37891 1.0391-0.37891 1.4219 0l18.078 18.199c0.39062 0.39062 0.39062 1.0195 0 1.4102l-14.711 14.809c-0.19141 0.19141-0.44141 0.28906-0.71094 0.28906zm-16.668-19.199 16.672 16.789 13.301-13.391-16.672-16.781-13.301 13.391z"/>
  <path d="m48.422 68.711c-0.26953 0-0.53125-0.10938-0.73047-0.32031-0.37891-0.39844-0.35938-1.0391 0.050782-1.4102l2.0898-1.9492c0.14844-0.14062 0.33984-0.23047 0.53906-0.26172l4.6016-0.67188c0.55078-0.078125 1.0508 0.30078 1.1289 0.85156 0.078126 0.55078-0.30078 1.0508-0.85156 1.1289l-4.2891 0.62109-1.8594 1.7383c-0.19141 0.17969-0.44141 0.26953-0.67969 0.26953z"/>
  <path d="m61.25 81.559c-0.26172 0-0.51953-0.10156-0.71094-0.28906l-12.121-12.191-0.41016 0.39062-2.1094 4.9219c-0.10938 0.26172-0.32031 0.46094-0.58984 0.55078-1.5117 0.53125-2.4805 0.17188-3.0312-0.21875-1.3203-0.94141-1.3281-2.8203-1.3281-3.0312 0-0.14062 0.03125-0.26953 0.089843-0.39844l2.9609-6.6094c0.058594-0.12109 0.14062-0.23047 0.23047-0.32812l6.6016-6.0703c0.078125-0.078125 0.17969-0.14062 0.28125-0.17969l7-3.0391c0.37891-0.17188 0.82031-0.078125 1.1094 0.21094l12.141 12.23c0.33984 0.33984 0.39062 0.87891 0.10938 1.2695l-6.1797 8.8906c-0.10938 0.19141-0.28125 0.33984-0.48047 0.42188-0.37891 0.14844-0.80859 0.070312-1.0898-0.21875l-10.809-10.891c-0.39062-0.39062-0.39062-1.0312 0-1.4219 0.39063-0.39062 1.0195-0.39062 1.4102 0l9.9688 10.031 5.0586-7.2891-11.07-11.148-6.2188 2.6992-6.3203 5.8203-2.7812 6.2109c0.03125 0.37891 0.17187 0.98047 0.48828 1.1992 0.19922 0.14062 0.5 0.12891 0.80078 0.070313l2.0117-4.6797c0.050781-0.12891 0.12891-0.23828 0.23047-0.32812l1.25-1.1719c0.32812-0.30859 0.83984-0.35938 1.2188-0.10938 0.16016 0.10156 0.32031 0.23047 0.48828 0.41016l1.3086 1.3086c0.12891 0.050781 0.25 0.12891 0.35938 0.23047l10.922 10.98c0.39063 0.39062 0.39063 1.0195 0 1.4102-0.10937 0.10938-0.32031 0.23828-0.46094 0.28906-0.10156 0.039062-0.21094 0.050781-0.32031 0.050781z"/>
  <path d="m37.789 83.711c-0.80078 0-1.5508-0.30859-2.1211-0.87891-1.1602-1.1719-1.1602-3.0781 0-4.25l2.5117-2.5312c1.1289-1.1289 3.1094-1.1289 4.2383 0 1.1602 1.1719 1.1602 3.0781 0 4.25l-2.5117 2.5312c-0.55859 0.57031-1.3203 0.87891-2.1211 0.87891zm2.5117-6.5312c-0.26953 0-0.51172 0.10156-0.69922 0.28906l-2.5117 2.5312c-0.39062 0.39062-0.39062 1.0312 0 1.4297 0.19141 0.19141 0.42969 0.28906 0.69922 0.28906 0.26953 0 0.51172-0.10156 0.69922-0.28906l2.5117-2.5312c0.39062-0.39063 0.39062-1.0312 0-1.4297-0.19141-0.19141-0.42969-0.28906-0.69922-0.28906z"/>
  <path d="m44.941 89.352c-0.83984 0-1.6211-0.32812-2.2109-0.92187-1.2109-1.2188-1.2109-3.2109 0-4.4297l1.8789-1.8906c0.58984-0.58984 1.3711-0.92188 2.2109-0.92188 0.83984 0 1.6211 0.32812 2.2109 0.92188 1.2109 1.2188 1.2109 3.2109 0 4.4297l-1.8789 1.8906c-0.58984 0.58984-1.3711 0.92187-2.2109 0.92187zm1.8789-6.1484c-0.30078 0-0.57812 0.12109-0.78906 0.32812l-1.8789 1.8906c-0.42969 0.44141-0.42969 1.1719 0 1.6094 0.42188 0.42188 1.1602 0.42188 1.5781 0l1.8789-1.8906c0.44141-0.44141 0.44141-1.1602 0-1.6094-0.21094-0.21094-0.48828-0.32812-0.78906-0.32812z"/>
  <path d="m41.078 86.859c-0.87891 0-1.6992-0.33984-2.3086-0.94922-0.62109-0.64062-0.96094-1.4609-0.96094-2.3281 0-0.87109 0.32812-1.6914 0.94141-2.3203l2.4297-2.4414c1.2305-1.2383 3.3984-1.2383 4.6406 0 0.60156 0.60938 0.94922 1.4609 0.94922 2.3203 0 0.37109-0.058593 0.71875-0.19141 1.0508-0.12891 0.46094-0.39844 0.89844-0.76172 1.2695l-2.4297 2.4414c-0.60938 0.60938-1.4297 0.94922-2.3008 0.96094h-0.011719zm2.4219-7c-0.33984 0-0.66016 0.12891-0.89844 0.37109l-2.4219 2.4414c-0.23828 0.23828-0.37109 0.57031-0.37109 0.92188s0.12891 0.67188 0.37891 0.92188c0.23047 0.23047 0.55078 0.35938 0.89062 0.35938s0.64844-0.12891 0.89062-0.35938l2.4297-2.4492c0.12891-0.12891 0.23047-0.28125 0.26172-0.42969 0.011719-0.039063 0.019532-0.078125 0.039063-0.12109 0.039062-0.10938 0.058593-0.21875 0.058593-0.35156 0-0.33984-0.12891-0.67969-0.37109-0.92187-0.23828-0.23828-0.55859-0.37109-0.89844-0.37109z"/>
  <path d="m48.59 62.719c-0.23828 0-0.46875-0.078125-0.66016-0.25l-7.4219-6.6094c-0.41016-0.37109-0.44922-1-0.078124-1.4102 0.37109-0.41016 1-0.44922 1.4102-0.078125l7.4219 6.6094c0.41016 0.37109 0.44922 1 0.078125 1.4102-0.19922 0.21875-0.46875 0.32812-0.75 0.32812z"/>
  <path d="m37.309 79.352c-0.28906 0-0.57031-0.12109-0.76953-0.35937l-3.0703-3.7109s-0.050781-0.058594-0.070312-0.10156l-4.8906-7.6406c-0.30078-0.46094-0.16016-1.0781 0.30078-1.3789 0.46875-0.30078 1.0781-0.16016 1.3789 0.30078l4.8594 7.5781 3.0312 3.6602c0.35156 0.42188 0.28906 1.0586-0.12891 1.4102-0.19141 0.14844-0.41016 0.23047-0.64062 0.23047z"/>
  <path d="m60.219 86.039c-0.85938 0-1.6719-0.33984-2.3008-0.94922l-12.641-12.719c-0.28906-0.28906-0.37109-0.71875-0.21094-1.1016l1.1914-2.7812c0.050782-0.12891 0.12891-0.23828 0.23047-0.32812l1.25-1.1719c0.32812-0.30859 0.83984-0.35938 1.2188-0.10938 0.16016 0.10156 0.32031 0.23047 0.48828 0.41016l13.078 13.16c1.2812 1.2891 1.2812 3.3711 0 4.6406-0.60938 0.60938-1.4492 0.96094-2.3086 0.96094zm-13.051-14.602 12.16 12.23c0.48828 0.48047 1.3281 0.46875 1.7891 0 0.48828-0.48828 0.48828-1.3203 0-1.8086l-12.691-12.77-0.41016 0.39062-0.83984 1.9688z"/>
  <path d="m63.141 82.379c-0.89844 0-1.7188-0.33984-2.3281-0.96875l-11.109-11.18c-0.39062-0.39062-0.39062-1.0195 0-1.4102 0.39062-0.39062 1.0195-0.39062 1.4102 0l11.121 11.191c0.23047 0.23828 0.55078 0.37109 0.89844 0.37109 0.23828 0 0.58984-0.058593 0.89063-0.37109 0.5-0.5 0.5-1.3203 0-1.8203l-11.121-11.199c-0.39062-0.39063-0.39062-1.0312 0-1.4219 0.39062-0.39062 1.0195-0.39062 1.4102 0l11.121 11.199c1.2695 1.2812 1.2695 3.3594 0 4.6406-0.60938 0.62109-1.4297 0.96094-2.3086 0.96094z"/>
  <path d="m56.691 88.238c-0.76953 0-1.5117-0.30078-2.0703-0.85156l-0.28125-0.28125s-0.089844-0.10156-0.12109-0.14844c-0.03125-0.039062-0.058594-0.089843-0.10156-0.12109l-8.9219-8.9805c-0.078124-0.050781-0.19922-0.14844-0.26953-0.21094l-0.28125-0.28125c-0.39062-0.39062-0.39062-1.0312 0-1.4102 0.39062-0.39062 1.0312-0.39062 1.4102 0l0.19922 0.19922c0.14062 0.10156 0.26172 0.21094 0.35156 0.28906l8.9219 8.9805c0.10156 0.10938 0.19922 0.21875 0.28906 0.33984l0.19922 0.21094c0.35938 0.35156 0.96094 0.35938 1.3398-0.011718 0.35938-0.35938 0.35938-0.98828-0.011719-1.3594l-9.9414-10.012c-0.39062-0.39062-0.39062-1.0312 0-1.4219s1.0195-0.39062 1.4102 0l9.9414 10.012c1.1484 1.1602 1.1484 3.0312 0 4.1914-0.57031 0.55859-1.3086 0.85938-2.0781 0.85938z"/>
  <path d="m53.219 89.781c-0.73828 0-1.4219-0.28125-1.9414-0.80078l-3.1914-3.2109c-0.39063-0.39062-0.39063-1.0312 0-1.4102 0.39062-0.39062 1.0195-0.39062 1.4102 0l3.1914 3.2109c0.14062 0.14063 0.30859 0.21094 0.51953 0.21094 0.10938 0 0.32812-0.03125 0.51953-0.21094 0.23828-0.23828 0.28125-0.64844 0.10156-0.92969-0.03125-0.039063-0.058594-0.089844-0.10156-0.12109l-9.5898-9.6719c-0.39062-0.39844-0.37891-1.0312 0.019531-1.4102s1.0312-0.37891 1.4102 0.019531l0.67188 0.69141 8.9102 8.9688c0.12891 0.12891 0.25 0.28125 0.35156 0.42969 0.71094 1.0781 0.55859 2.5312-0.35156 3.4414-0.51172 0.51953-1.1992 0.80078-1.9297 0.80078z"/>
  <path d="m25.461 67.66c-0.25 0-0.51172-0.10156-0.69922-0.28906-0.39062-0.39062-0.39062-1.0195 0-1.4102l14.711-14.809c0.39062-0.39062 1.0195-0.39062 1.4102 0 0.39063 0.39062 0.39063 1.0195 0 1.4102l-14.711 14.809c-0.19922 0.19922-0.44922 0.28906-0.71094 0.28906z"/>
  <path d="m73.719 67.281c-0.26172 0-0.51172-0.10156-0.71094-0.28906l-14.672-14.77c-0.39063-0.39062-0.39063-1.0312 0-1.4102 0.39062-0.39062 1.0195-0.39062 1.4102 0l14.672 14.77c0.39062 0.39062 0.39062 1.0312 0 1.4102-0.19141 0.19141-0.44922 0.28906-0.69922 0.28906z"/>
 </g>
</svg>