<svg xmlns="http://www.w3.org/2000/svg" viewBox="-6.5 -13.083000000000002 143.0 176.62050000000002" x="0px" y="0px"><path d="M120.31,84.33l0-4c2.37,0,5.74-2.24,5.74-4.27V37.88c0-2.69-2-5.81-4.27-6.55a51.72,51.72,0,0,0-32.08,0c-2.22.74-4.25,3.86-4.25,6.55V76.06h-4V37.88c0-4.43,3.14-9.07,7-10.35a55.76,55.76,0,0,1,34.56,0c3.88,1.28,7,5.92,7,10.35V76.06C130,81,124.17,84.28,120.31,84.33Z"/><polygon points="41.46 84.31 40.14 80.53 49.71 77.21 39.82 46.02 43.64 44.82 54.7 79.71 41.46 84.31"/><path d="M66.33,84.73a9.16,9.16,0,1,1,9.1-9.15A9.13,9.13,0,0,1,66.33,84.73Zm0-14.31a5.16,5.16,0,1,0,5.1,5.16A5.13,5.13,0,0,0,66.33,70.42Z"/><path d="M77.48,113.54H53.93V88.17H77.48Zm-19.55-4H73.48V92.17H57.93Z"/><rect x="49.69" y="77.94" width="4" height="13.62" transform="translate(-40.77 48.63) rotate(-37.28)"/><rect x="72.91" y="82.75" width="13.62" height="4" transform="translate(-36 96.89) rotate(-52.74)"/><rect x="58.09" y="111.12" width="4" height="18.02"/><rect x="69.32" y="111.12" width="4" height="18.02"/><polygon points="31.42 130.83 17.35 130.83 15 108.77 18.98 108.35 20.95 126.83 27.83 126.83 29.8 108.35 33.78 108.77 31.42 130.83"/><rect x="103.69" y="88.04" width="4" height="40.79"/><polygon points="120.68 128.32 90.72 128.32 90.72 43.74 94.72 43.74 94.72 124.32 116.68 124.32 116.68 43.74 120.68 43.74 120.68 128.32"/><rect x="103.69" y="88.04" width="4" height="40.79"/><path d="M5.5,80.48c-.82-2.75-1.72-5.77-2.63-8.79s-1.87-6.2-2.7-9L0,62.1l.17-.57q2.48-8.34,5-16.68c1.11-3.57,4.23-8.27,7.34-9.7a29.38,29.38,0,0,1,11.91-2.82,29.25,29.25,0,0,1,11.89,2.81c3.14,1.43,6.26,6.14,7.37,9.69L39.82,46c-1-3.14-3.63-6.52-5.18-7.23a25.4,25.4,0,0,0-10.25-2.46A25.46,25.46,0,0,0,14.11,38.8C12.59,39.5,9.93,42.88,9,46Q6.57,54,4.17,62.1C5,64.76,5.83,67.65,6.7,70.54s1.82,6,2.63,8.8Z"/><polygon points="47.65 104.21 1.12 104.21 12.68 47.12 16.6 47.91 6.01 100.21 42.76 100.21 32.18 47.91 36.1 47.12 47.65 104.21"/><path d="M105.7,28.58a14.29,14.29,0,1,1,14.2-14.29A14.26,14.26,0,0,1,105.7,28.58ZM105.7,4a10.29,10.29,0,1,0,10.2,10.29A10.26,10.26,0,0,0,105.7,4Z"/><path d="M24.39,35.5A13.67,13.67,0,1,1,38,21.83,13.64,13.64,0,0,1,24.39,35.5Zm0-23.33A9.67,9.67,0,1,0,34,21.83,9.63,9.63,0,0,0,24.39,12.17Z"/></svg>