<svg xmlns="http://www.w3.org/2000/svg" viewBox="0 0 100 125" x="0px" y="0px"><defs><style>.cls-1{stroke-width:0px;}</style></defs><path class="cls-1" d="m39.565,36.973c.352.351.352.921,0,1.273l-4.924,4.924c-.173.173-.404.264-.637.264-.156,0-.314-.041-.456-.124l-2.392-1.407c-.428-.252-.571-.804-.319-1.232.252-.428.804-.571,1.232-.319l1.791,1.054,4.432-4.432c.351-.351.921-.351,1.273,0Zm7.083.875h13.849c.497,0,.9-.403.9-.9s-.403-.9-.9-.9h-13.849c-.497,0-.9.403-.9.9s.403.9.9.9Zm0,3.123h13.849c.497,0,.9-.403.9-.9s-.403-.9-.9-.9h-13.849c-.497,0-.9.403-.9.9s.403.9.9.9Zm0,3.123h13.849c.497,0,.9-.403.9-.9s-.403-.9-.9-.9h-13.849c-.497,0-.9.403-.9.9s.403.9.9.9Zm0,6.42h13.849c.497,0,.9-.403.9-.9s-.403-.9-.9-.9h-13.849c-.497,0-.9.403-.9.9s.403.9.9.9Zm39.847-14.403v20.117c0,1.262-1.026,2.288-2.288,2.288h-6.341c.118.659.178,1.331.178,2.006,0,3.447-1.101,4.951-2.071,6.277-.636.868-1.212,1.658-1.521,2.989.056.035.109.074.157.123l3.603,3.604c.303.303.35.779.112,1.136l-1.074,1.611c.203.417.381.847.533,1.286l1.899.38c.421.084.724.454.724.883v5.096c0,.429-.303.798-.724.883l-1.899.38c-.152.439-.33.869-.533,1.286l1.074,1.611c.238.357.191.832-.112,1.136l-3.604,3.604c-.303.303-.779.351-1.136.112l-1.611-1.074c-.417.203-.847.381-1.286.533l-.38,1.899c-.084.421-.454.724-.883.724h-5.096c-.429,0-.798-.303-.883-.724l-.38-1.899c-.439-.152-.869-.33-1.286-.533l-1.611,1.074c-.357.238-.832.191-1.136-.112l-3.604-3.604c-.303-.303-.35-.779-.112-1.136l1.074-1.611c-.203-.417-.381-.847-.533-1.286l-1.899-.38c-.421-.084-.724-.454-.724-.883v-5.096c0-.429.303-.798.724-.883l1.171-.234h-25.144c-3.397,0-6.161-2.764-6.161-6.161V31.561s0-.002,0-.003l-.38-1.899c-.439-.152-.869-.33-1.286-.533l-1.611,1.074c-.357.238-.832.191-1.136-.112l-3.603-3.604c-.303-.303-.351-.779-.112-1.136l1.074-1.611c-.203-.417-.381-.847-.533-1.286l-1.899-.38c-.421-.084-.724-.454-.724-.882v-5.096c0-.429.303-.798.724-.882l1.899-.38c.152-.439.33-.869.533-1.286l-1.074-1.611c-.238-.357-.191-.832.112-1.136l3.603-3.604c.303-.303.779-.35,1.136-.112l1.611,1.074c.417-.203.847-.381,1.286-.533l.38-1.899c.084-.421.454-.724.883-.724h5.096c.429,0,.798.303.883.724l.38,1.899c.439.152.869.33,1.286.533l1.611-1.074c.357-.238.832-.191,1.136.112l3.603,3.604c.303.303.351.779.112,1.136l-1.074,1.611c.203.417.381.847.533,1.286l1.899.38c.421.084.724.454.724.882v.878h21.985c3.397,0,6.162,2.764,6.162,6.161v1.305c.68-.279,1.423-.435,2.202-.435h6.219c3.204,0,5.81,2.606,5.81,5.81v4.01h1.045c1.262,0,2.288,1.026,2.288,2.288Zm-15.363-10.308c-2.211,0-4.01,1.799-4.01,4.01v4.01h1.111v-2.705c0-2.484,2.021-4.505,4.505-4.505h3.008c2.484,0,4.505,2.021,4.505,4.505v2.705h1.111v-4.01c0-2.211-1.799-4.01-4.01-4.01h-6.219Zm7.319,5.315c0-1.492-1.214-2.705-2.705-2.705h-3.008c-1.492,0-2.705,1.213-2.705,2.705v2.705h8.418v-2.705Zm-54.086-3.018c.321.094.564.359.629.687l.339,1.695h3.62l.339-1.695c.066-.328.308-.593.629-.687.675-.198,1.329-.469,1.945-.806.294-.161.652-.145.931.041l1.438.959,2.56-2.56-.959-1.438c-.186-.279-.201-.637-.041-.931.337-.616.608-1.27.806-1.945.094-.321.359-.564.687-.629l1.695-.339v-3.62l-1.695-.339c-.328-.066-.593-.308-.687-.629-.198-.675-.469-1.329-.806-1.945-.161-.294-.145-.653.041-.931l.959-1.438-2.56-2.56-1.438.959c-.279.186-.637.201-.931.041-.616-.337-1.27-.608-1.945-.806-.321-.094-.564-.359-.629-.687l-.339-1.695h-3.62l-.339,1.695c-.066.328-.308.593-.629.687-.675.198-1.329.469-1.945.806-.294.161-.652.145-.931-.041l-1.438-.959-2.56,2.56.959,1.438c.186.279.201.637.041.931-.337.616-.608,1.27-.806,1.945-.094.321-.359.564-.687.629l-1.695.339v3.62l1.695.339c.328.066.593.308.687.629.198.675.469,1.329.806,1.945.161.294.145.652-.041.931l-.959,1.438,2.56,2.56,1.438-.959c.279-.186.637-.202.931-.041.616.337,1.27.608,1.945.806Zm5.51,47.794h30.677v-1.447c-.744-.484-1.237-1.321-1.237-2.272,0-1.158-.124-2.033-.33-2.746h-12.337c-.497,0-.9-.403-.9-.9s.403-.9.9-.9h11.494c-.184-.281-.381-.551-.584-.828-.118-.161-.238-.325-.358-.495h-10.552c-.497,0-.9-.403-.9-.9s.403-.9.9-.9h9.531c-.163-.393-.307-.829-.42-1.323h-9.111c-.497,0-.9-.403-.9-.9s.403-.9.9-.9h8.863c-.016-.273-.025-.558-.025-.859,0-1.307.225-2.575.644-3.761h-9.483c-.497,0-.9-.403-.9-.9s.403-.9.9-.9h10.301c.261-.461.554-.903.877-1.323h-11.178c-.497,0-.9-.403-.9-.9s.403-.9.9-.9h12.916c.677-.561,1.427-1.047,2.238-1.444v-14.282c0-1.262,1.026-2.288,2.288-2.288h1.232v-4.01c0-1.654.696-3.147,1.808-4.206v-2.474c0-2.405-1.957-4.361-4.362-4.361h-21.985v2.418c0,.429-.303.798-.724.882l-1.899.38c-.152.439-.33.869-.533,1.286l1.074,1.611c.238.357.191.832-.112,1.136l-3.603,3.604c-.303.303-.779.351-1.136.112l-1.611-1.074c-.417.203-.847.381-1.286.533l-.38,1.899c-.084.421-.454.724-.883.724h-4.178v39.251c0,2.405,1.957,4.361,4.361,4.361Zm32.477-1.008v1.089c0,.16.135.295.295.295h8.234c.16,0,.295-.135.295-.295v-1.089h-8.825Zm-2.346,7.438c0,3.727,3.032,6.759,6.759,6.759s6.759-3.032,6.759-6.759c0-1.656-.613-3.25-1.7-4.48-.284.144-.603.226-.942.226h-.065v2.063c0,.497-.403.9-.9.9h-6.303c-.497,0-.9-.403-.9-.9v-2.063h-.065c-.339,0-.658-.083-.942-.226-1.087,1.229-1.7,2.823-1.7,4.48Zm4.507-3.09h4.503v-1.163h-4.503v1.163Zm9.702-7.169c0,.037,0,.073,0,.11,0,.951-.494,1.788-1.237,2.272v1.528c0,.144-.015.285-.043.421,1.524,1.588,2.389,3.713,2.389,5.928,0,4.719-3.839,8.559-8.559,8.559s-8.559-3.839-8.559-8.559c0-1.655.483-3.261,1.363-4.63h-1.954c-.116.291-.221.587-.309.886-.094.321-.359.564-.687.629l-1.695.339v3.62l1.695.339c.328.066.593.308.687.629.198.676.469,1.33.806,1.944.161.294.145.652-.041.931l-.959,1.438,2.56,2.56,1.438-.959c.279-.186.637-.201.931-.041.616.337,1.27.608,1.945.806.321.094.564.359.629.687l.339,1.695h3.62l.339-1.695c.066-.328.308-.593.629-.687.674-.198,1.329-.469,1.945-.806.294-.161.652-.145.931.041l1.438.959,2.56-2.56-.959-1.438c-.186-.279-.201-.637-.041-.931.337-.615.608-1.27.806-1.944.094-.321.359-.564.687-.629l1.694-.339v-3.621l-1.694-.339c-.328-.066-.593-.308-.687-.629-.198-.675-.469-1.329-.806-1.944-.161-.294-.145-.653.041-.931l.959-1.438-2.202-2.202Zm1.816-13.548h-11.941c-1.262,0-2.288-1.026-2.288-2.288v-3.785c-2.782,1.707-4.516,4.746-4.516,8.079,0,2.859.799,3.95,1.724,5.214.5.683,1.033,1.412,1.438,2.427.006.013.01.026.015.039.386.984.652,2.236.652,3.971,0,.502.409.911.911.911h3.839v-10.501l-3.41-1.969c-.43-.249-.578-.799-.329-1.229.248-.43.798-.578,1.229-.329l3.41,1.969,3.41-1.969c.43-.248.981-.101,1.229.329.249.43.101.981-.329,1.229l-3.41,1.969v10.501h3.839c.502,0,.911-.409.911-.911,0-3.561,1.118-5.089,2.105-6.437.925-1.264,1.724-2.355,1.724-5.214,0-.678-.071-1.35-.213-2.006Zm8.664-22.405c0-.265-.224-.488-.488-.488h-20.117c-.265,0-.488.224-.488.488v20.117c0,.265.224.488.488.488h20.117c.265,0,.488-.224.488-.488v-20.117Zm-5.919,8.357c0,1.695-.945,3.253-2.405,4.057v3.074c0,.497-.403.9-.9.9h-2.645c-.497,0-.9-.403-.9-.9v-3.074c-1.46-.804-2.405-2.362-2.405-4.057,0-2.552,2.076-4.627,4.627-4.627s4.628,2.076,4.628,4.627Zm-1.8,0c0-1.559-1.268-2.827-2.828-2.827s-2.827,1.268-2.827,2.827c0,1.168.733,2.231,1.824,2.645.005.002.009.005.013.007.033.013.064.031.095.047.022.012.044.022.065.035.025.017.048.037.072.056.022.018.045.034.065.054.02.02.037.043.056.065.019.022.039.043.055.066.017.025.031.053.045.08.013.024.028.046.038.071.012.027.019.056.028.084.009.028.02.055.026.083.005.024.007.05.01.075.005.034.01.069.01.104,0,.005.002.01.002.015v2.744h.845v-2.744c0-.005.001-.01.002-.015,0-.035.006-.069.01-.104.003-.025.005-.051.01-.075.006-.029.017-.056.026-.083.009-.028.017-.057.028-.084.011-.025.025-.047.038-.071.015-.027.028-.055.045-.08.016-.024.036-.044.055-.066.018-.022.035-.045.056-.065.02-.02.043-.036.065-.054.024-.019.046-.039.072-.056.02-.013.043-.023.065-.035.031-.017.062-.034.095-.047.005-.002.009-.005.013-.007,1.091-.414,1.824-1.477,1.824-2.645ZM27.145,25.251c-3.645,0-6.61-2.965-6.61-6.61s2.965-6.61,6.61-6.61,6.61,2.965,6.61,6.61-2.965,6.61-6.61,6.61Zm0-1.8c2.652,0,4.81-2.158,4.81-4.81s-2.158-4.81-4.81-4.81-4.81,2.158-4.81,4.81,2.157,4.81,4.81,4.81Zm11.148,26.189l-4.432,4.432-1.791-1.054c-.428-.252-.98-.109-1.232.319-.252.428-.109.98.319,1.232l2.392,1.407c.142.083.3.124.456.124.233,0,.463-.09.637-.264l4.924-4.924c.352-.351.352-.921,0-1.273-.351-.352-.921-.352-1.273,0Zm0,12.667l-4.432,4.432-1.791-1.054c-.428-.252-.98-.109-1.232.319-.252.428-.109.98.319,1.232l2.392,1.407c.142.083.3.124.456.124.233,0,.463-.09.637-.264l4.924-4.924c.352-.351.352-.921,0-1.273-.351-.352-.921-.352-1.273,0Z"/></svg>