<svg xmlns="http://www.w3.org/2000/svg" xmlns:xlink="http://www.w3.org/1999/xlink" version="1.1" x="0px" y="0px" viewBox="0 0 66 82.5" style="enable-background:new 0 0 66 66;" xml:space="preserve"><path d="M64.24,57.71l-3.18-4.16c0,0,0,0,0,0l-9.09-11.88l2.23-1.71c0.61,0.55,1.38,0.85,2.17,0.85c0.68,0,1.37-0.21,1.95-0.66  c0,0,0,0,0,0c0.69-0.53,1.13-1.29,1.24-2.14c0.11-0.85-0.12-1.7-0.64-2.37l-5.57-7.27c-0.5-0.65-1.22-1.08-1.98-1.21  c-0.18-0.04-0.37-0.06-0.58-0.06c-0.71,0-1.39,0.23-1.96,0.66c-0.68,0.52-1.12,1.28-1.24,2.13c-0.09,0.66,0.03,1.32,0.33,1.9  l-10.34,7.92c-0.59-0.54-1.34-0.85-2.16-0.85c-0.72,0-1.4,0.23-1.96,0.66c-0.17,0.13-0.31,0.27-0.44,0.42  c-1.23-0.37-2.5-0.6-3.82-0.67v-4.6c3.38-2.59,5.47-7.13,5.47-12.03c0-0.19,0-0.38-0.01-0.51c-0.02-0.67-0.09-1.33-0.19-1.99h0.91h2  c0.54,0,0.97-0.43,0.97-0.97s-0.43-0.97-0.97-0.97h-1.24c-1.44-5.52-5.16-9.8-9.73-11.22v-2.6c0-1.14-0.93-2.06-2.06-2.06h-2.66  c-1.14,0-2.06,0.93-2.06,2.06v2.6c-4.58,1.42-8.29,5.7-9.74,11.22H8.25c-0.54,0-0.97,0.43-0.97,0.97s0.43,0.97,0.97,0.97h2.4h0.92  c-0.12,0.83-0.2,1.66-0.2,2.5c0,0.13,0,0.26,0.02,0.4c0.11,4.76,2.19,9.16,5.46,11.65v4.6C8.03,39.78,1,47.09,1,56.03v3.3  c0,2.4,1.95,4.35,4.35,4.35H19.6c0,0,0.01,0,0.01,0h19.77c0,0,0.01,0,0.01,0h1.3c2.4,0,4.35-1.95,4.35-4.35v-3.3  c0-1.91-0.32-3.79-0.95-5.57c-0.02-0.04-0.04-0.08-0.06-0.12c0.25-0.8,0.2-1.68-0.19-2.46l2.22-1.7l9.09,11.88c0,0,0,0,0,0  l3.19,4.17c0.73,0.95,1.84,1.45,2.95,1.45c0.79,0,1.58-0.25,2.25-0.76c0.79-0.61,1.3-1.48,1.43-2.47  C65.1,59.47,64.84,58.49,64.24,57.71z M50.02,40.71C50.01,40.71,50.01,40.71,50.02,40.71l-2.37,1.81l-4.94,3.78l-3.89-5.09  l10.25-7.84l3.9,5.09L50.02,40.71z M50,29.31c0.23-0.18,0.49-0.27,0.78-0.27c0.07,0,0.13,0,0.22,0.02c0.32,0.05,0.6,0.23,0.8,0.48  l5.57,7.27c0.21,0.27,0.3,0.6,0.25,0.94c-0.04,0.34-0.22,0.64-0.5,0.86c-0.56,0.43-1.37,0.32-1.79-0.23l-0.24-0.31  c0-0.01-0.01-0.01-0.01-0.02l-1.95-2.55l-1.2-1.58l-2.16-2.83c-0.21-0.27-0.3-0.61-0.25-0.95C49.56,29.82,49.73,29.51,50,29.31z   M34.64,41.07c0.23-0.18,0.49-0.26,0.79-0.26c0.4,0,0.77,0.18,1.01,0.5l0.24,0.31c0,0,0,0.01,0.01,0.01l3.45,4.51l1.63,2.13  l0.24,0.3c0.39,0.52,0.34,1.25-0.13,1.7c0,0,0,0-0.01,0.01c-0.03,0.03-0.06,0.06-0.13,0.11c-0.07,0.05-0.14,0.1-0.25,0.14  c-0.53,0.24-1.17,0.07-1.52-0.39l-5.56-7.27c-0.24-0.32-0.32-0.72-0.22-1.12c0.02-0.08,0.04-0.13,0.06-0.17  c0.01-0.03,0.02-0.05,0.04-0.08C34.36,41.33,34.48,41.19,34.64,41.07z M23.01,36.87c1.08,0,2.15-0.19,3.18-0.54  c0.04-0.02,0.09-0.03,0.13-0.05c0.27-0.1,0.54-0.21,0.81-0.33c0.04-0.02,0.08-0.03,0.13-0.05v3.89l-2.11,1.91l-2.11,1.91l-4.24-3.86  v-3.83c0.04,0.02,0.09,0.03,0.13,0.05c0.26,0.12,0.53,0.23,0.79,0.32c0.05,0.02,0.09,0.04,0.14,0.05  C20.88,36.69,21.94,36.87,23.01,36.87z M19.62,9.04v2.35c0,0.54,0.43,0.97,0.97,0.97s0.97-0.43,0.97-0.97V7.72V4.38  c0-0.07,0.06-0.12,0.12-0.12h2.66c0.07,0,0.12,0.06,0.12,0.12v3.34v3.67c0,0.54,0.43,0.97,0.97,0.97s0.97-0.43,0.97-0.97V9.04  c3.55,1.34,6.45,4.76,7.73,9.16h-0.81H12.7h-0.81C13.18,13.8,16.08,10.38,19.62,9.04z M13.32,22.92c0-0.08,0-0.1-0.02-0.17  c0-0.04,0-0.07,0-0.11c0-0.84,0.07-1.68,0.2-2.5h19.02c0.11,0.67,0.17,1.36,0.2,2.09c0.01,0.13,0.01,0.27,0.01,0.41  c0,4.48-1.94,8.61-5.06,10.78c-0.04,0.03-0.09,0.05-0.14,0.08c-2.8,1.87-6.36,1.86-9.12-0.05c-0.02-0.01-0.03-0.02-0.05-0.03  C15.34,31.33,13.4,27.3,13.32,22.92z M35.85,56.79H22.89v-2.16c0-0.45,0.37-0.82,0.82-0.82h11.32c0.45,0,0.82,0.37,0.82,0.82V56.79z   M21.58,58.73h0.26c0.03,0,0.05,0.02,0.08,0.02h14.9c0.03,0,0.05-0.01,0.08-0.02h0.51c0.95,0,1.72,0.77,1.72,1.72v1.28H19.85v-1.28  C19.85,59.51,20.63,58.73,21.58,58.73z M43.1,59.33c0,1.2-0.88,2.19-2.03,2.38v-1.25c0-1.89-1.44-3.43-3.28-3.62v-2.2  c0-1.52-1.24-2.76-2.76-2.76H23.71c-1.52,0-2.76,1.24-2.76,2.76v2.22c-1.72,0.3-3.04,1.79-3.04,3.6v1.28H5.35  c-1.33,0-2.41-1.08-2.41-2.41v-3.3c0-8.07,6.47-14.65,14.55-14.85l1.86,1.7l3.02,2.76c0.19,0.17,0.42,0.25,0.65,0.25  c0.12,0,0.23-0.02,0.34-0.06c0,0,0,0,0,0c0.01,0,0.02-0.02,0.03-0.02c0.1-0.04,0.19-0.09,0.27-0.16l0,0c0,0,0,0,0,0l0.08-0.07  l4.86-4.38c1.23,0.03,2.43,0.21,3.59,0.54c-0.01,0.05,0,0.1,0,0.16c-0.01,0.09-0.01,0.17-0.01,0.26c0,0.14,0.01,0.28,0.03,0.42  c0.01,0.08,0.02,0.17,0.04,0.25c0.03,0.15,0.08,0.29,0.14,0.43c0.03,0.07,0.05,0.14,0.08,0.21c0.1,0.21,0.21,0.41,0.35,0.59  l5.56,7.27c0.14,0.18,0.3,0.34,0.47,0.49c0.05,0.04,0.09,0.08,0.14,0.11c0.14,0.11,0.29,0.21,0.45,0.29  c0.04,0.02,0.07,0.04,0.11,0.06c0.19,0.09,0.39,0.16,0.59,0.21c0.06,0.02,0.13,0.03,0.19,0.04c0.15,0.03,0.3,0.05,0.46,0.05  c0.05,0,0.09,0.02,0.14,0.02c0.03,0,0.06-0.01,0.08-0.01c0.14,0,0.28-0.02,0.42-0.04c0.06-0.01,0.13-0.02,0.19-0.03  c0.16-0.04,0.32-0.08,0.48-0.14c0.16-0.03,0.32-0.07,0.47-0.12c0.32,1.23,0.49,2.5,0.49,3.79V59.33z M49.26,43.74l1.16-0.89  l8.5,11.11l-2.82,2.15L47.6,45L49.26,43.74z M63.05,60.19c-0.06,0.47-0.31,0.89-0.69,1.18c0,0,0,0,0,0  c-0.77,0.59-1.89,0.45-2.48-0.33l-2.59-3.4l2.82-2.15l2.6,3.39C62.98,59.26,63.11,59.73,63.05,60.19z"/></svg>