<svg xmlns="http://www.w3.org/2000/svg" version="1.1" viewBox="-5.0 -10.0 110.0 135.0">
 <path d="m58.27 79.492v2.5391h-5.5117c-0.25781-1.2812-1.3984-2.25-2.7578-2.25s-2.5 0.96875-2.7617 2.25h-5.5117v-2.5391c0-0.78125 0.62891-1.3984 1.3984-1.3984h13.738c0.77734-0.003906 1.4062 0.61719 1.4062 1.3984zm-6.5781 3.1094c0-0.94141-0.76172-1.6992-1.6914-1.6992s-1.6914 0.76172-1.6914 1.6992c0 0.92969 0.76172 1.6914 1.6914 1.6914 0.92969-0.003907 1.6914-0.76172 1.6914-1.6914zm-1.6914 2.8203c-1.3594 0-2.5-0.96875-2.7617-2.2617h-5.5117v2.5508c0 0.76953 0.62891 1.3984 1.3984 1.3984h13.738c0.76953 0 1.3984-0.62891 1.3984-1.3984v-2.5508h-5.5117c-0.25 1.2891-1.3906 2.2617-2.75 2.2617zm9.0781-15.883h-18.156c-0.42188 0-0.75 0.32813-0.75 0.75 0 0.41016 0.32812 0.75 0.75 0.75h18.16c0.42188 0 0.75-0.33984 0.75-0.75-0.003906-0.41797-0.33203-0.75-0.75391-0.75zm21.371-44.828v61.641c0 4.7695-3.8789 8.6484-8.6484 8.6484h-49.621c-1.4492 0-2.6289-1.1797-2.6289-2.6289v-74.008c0-1.1992 0.80859-2.25 1.9805-2.5508l40.629-10.52c3.5898-0.92969 7.3281 0.39844 9.2891 3.3008 0.96875 1.4297 1.4805 3.1016 1.4805 4.8398v2.7109c4.2305 0.54688 7.5195 4.1875 7.5195 8.5664zm-50.91-8.6367h41.129v-2.6406c0-1.2891-0.37109-2.5195-1.0898-3.5703-1.4297-2.1211-4.1797-3.0703-6.8594-2.3789zm48.648 8.6367c0-3.5195-2.8711-6.3906-6.3906-6.3906l-49.984 0.003907v74.059c0 0.19922 0.17188 0.35938 0.37109 0.35938h49.617c3.5195 0 6.3906-2.8594 6.3906-6.3906zm-6.0586 31.031c-0.12109 0.16016-0.25 0.30078-0.39844 0.42187-0.67188 0.57031-1.5898 0.71875-2.4102 0.39063l-9.0508-3.5508-8.2109 5.8086c-1.5586 1.1797-3 1.3594-4.1406 0.53125-5.6094 4.2109-13.809 6.668-14.77-2.9609-0.089844-0.87891-0.12109-1.7695-0.10938-2.6484-0.011718-0.011719-0.011718-0.011719-0.019531-0.019531-0.57031-0.44141-1.1211-0.92969-1.6289-1.4609-2.4688-2.6016-3.9805-6.1094-3.9805-9.9688 0-3.8711 1.5117-7.3789 3.9805-9.9688 2.2188-2.3398 5.2305-3.9414 8.6016-4.3789 0.60937-0.058594 1.2383-0.10938 1.8711-0.10938 0.64062 0 1.2695 0.050781 1.8789 0.10938 3.3711 0.44141 6.3711 2.0391 8.5898 4.3789 2.4805 2.5898 3.9883 6.1016 3.9883 9.9688 0 0.46875-0.019531 0.94922-0.070312 1.4102l2.4883-0.12891 3.1094-3.0781c0.089844-0.089843 0.19922-0.17969 0.30078-0.26953 1.2812-1.0781 2.9609-1.6719 4.5-1.5781 1.2109 0.070313 2.2383 0.55859 2.9688 1.4219 0.71875 0.85938 1.0312 1.9609 0.89062 3.168-0.19141 1.5312-1.0586 3.0781-2.3516 4.168-0.10156 0.078124-0.19922 0.16016-0.30078 0.23047l-1.1719 0.83984 5 3.9883c1.0156 0.79297 1.207 2.2461 0.44531 3.2852zm-6.2578-16.262c-0.67969 1.0703-1.6484 2.1602-2.8203 3.1406l-0.058593 0.050781c-0.10938 0.089844-0.16016 0.21094-0.17188 0.35156 0 0.14062 0.050782 0.26172 0.14844 0.35156 0.16016 0.14844 0.42188 0.16016 0.60156 0.019531 0.21875-0.17188 0.44141-0.33984 0.64063-0.51172 1.1094-0.92969 2.0312-2 2.8789-3.3711-0.16016-0.03125-0.32031-0.050781-0.48828-0.058594-0.21094-0.011719-0.45312 0-0.73047 0.027344zm-14.121 5.2695c-0.03125 0-0.058594 0.011719-0.078125 0.03125-0.011719 0-0.019531 0.03125-0.039063 0.039062-0.011718 0.050782 0 0.10156 0.03125 0.14063l2.3281 2.7695 0.23828 0.30078 3.6289-3.6016zm-0.67188 6.3906 2.3789-2.3516 0.17969-0.17969-0.050781-0.058594-0.19141-0.23047-2.3711-2.8281c-0.23828-0.28125-0.28906-0.66016-0.14844-1 0.058594-0.12891 0.14844-0.25 0.26172-0.35156 0.16016-0.12891 0.35938-0.19922 0.57031-0.21875l3.3516-0.17188c0.039062-0.28906 0.058594-0.58984 0.078125-0.89062h-5.2109c-0.070312 2.4688-0.57031 4.8203-1.4883 6.9805zm-4.6094-1.3672-0.55078-0.26953c-0.21094-0.10156-0.51172-0.078125-0.67969 0.089844-0.26172 0.21875-0.28906 0.60938-0.070312 0.87109l1.0312 1.2305 2.8984 3.4609 3.0391-2.5586zm4.8125-16.871c-0.96875 0.53906-1.9688 1.0195-3.0312 1.3711 1.0312 2.2812 1.6016 4.7891 1.6797 7.4297h5.2109c-0.14062-3.2188-1.4102-6.25-3.6484-8.6016-0.070313-0.070312-0.14063-0.12891-0.21094-0.19922zm-6.1406-3.5117c1.0195 1.1602 1.8711 2.4609 2.5781 3.8398 0.050781-0.03125 0.10938-0.03125 0.16016-0.058594 0.87109-0.28906 1.7188-0.64062 2.5312-1.0781l-0.42188-0.32812c-0.078125-0.070313-0.17188-0.12891-0.25-0.19922-0.28125-0.19922-0.57031-0.39844-0.87109-0.58984-0.58984-0.37109-1.2109-0.67969-1.8516-0.96094-0.44922-0.17969-0.91016-0.35156-1.3711-0.48828-0.15625-0.054688-0.32422-0.085938-0.50391-0.13672zm-2.6992 4.7617c1.4219-0.03125 2.8086-0.23047 4.1602-0.58984-0.89062-1.668-2.0312-3.2109-3.3594-4.5117-0.050782-0.011719-0.10938-0.011719-0.16016-0.011719-0.21875-0.019531-0.42969-0.03125-0.64062-0.03125zm0 7.5508h6.3281c-0.070312-2.4414-0.57812-4.7812-1.5781-6.9609-0.019531-0.050782-0.050781-0.078126-0.058594-0.12891-1.5 0.42188-3.0703 0.64844-4.6914 0.69922zm0 7.5391c0.66016 0.019531 1.3008 0.070312 1.9414 0.14844 0.078126-0.16016 0.19141-0.30859 0.33984-0.44141 0.44141-0.35938 1.0586-0.44141 1.5703-0.17969l1.1094 0.55078c0.85938-2.0312 1.3086-4.2109 1.3711-6.4609h-6.3281zm0 6.3086c0.21094-0.011719 0.42188-0.011719 0.64844-0.03125 0.050781-0.011719 0.10156-0.011719 0.14062-0.019531 0.94141-0.91016 1.7891-1.9492 2.5117-3.0586l-1.1992-1.4414c-0.12109-0.14062-0.21094-0.28906-0.26172-0.46094-0.60938-0.078124-1.2188-0.12109-1.8398-0.14062zm-5.3125-21.988c1.3516 0.35938 2.7383 0.55859 4.1602 0.58984v-5.1406c-0.21094 0-0.42187 0.011719-0.64844 0.03125-0.050781 0-0.10156 0-0.14844 0.011719-1.332 1.2969-2.4727 2.8359-3.3633 4.5078zm4.1602 15.68v-6.3789h-6.3281c0.070312 2.4414 0.57812 4.7695 1.5703 6.9414 0.03125 0.050781 0.050781 0.10156 0.070312 0.14844 1.5-0.42969 3.0703-0.66016 4.6875-0.71094zm-4.1602 1.75c0.89062 1.6719 2.0312 3.2109 3.3711 4.5117 0.039062 0.011719 0.089844 0.011719 0.14062 0.019532 0.21875 0.019531 0.44141 0.019531 0.64844 0.03125v-5.1484c-1.418 0.035156-2.8086 0.22656-4.1602 0.58594zm4.1602-9.2891v-6.3906c-1.6211-0.050781-3.1914-0.28125-4.6914-0.69922-0.011718 0.050781-0.039062 0.078125-0.070312 0.12891-0.98828 2.1797-1.5 4.5195-1.5703 6.9609zm-7.9688-9.6094c0.80859 0.44141 1.6602 0.78906 2.5312 1.0781 0.050782 0.03125 0.10938 0.03125 0.16016 0.058594 0.71094-1.3789 1.5586-2.6797 2.5781-3.8398-0.17969 0.050781-0.35156 0.078125-0.51953 0.12891-0.46094 0.14062-0.92187 0.30859-1.3594 0.48828-0.64063 0.28125-1.2617 0.58984-1.8594 0.96094-0.28906 0.19141-0.57812 0.39062-0.85937 0.58984-0.078126 0.070312-0.17188 0.12891-0.25 0.19922-0.14063 0.11328-0.28125 0.22266-0.42188 0.33594zm-4.7305 9.6094h5.2109c0.078125-2.6406 0.64844-5.1484 1.6797-7.4297-1.0586-0.35156-2.0586-0.82813-3.0312-1.3711-0.070313 0.070312-0.14062 0.12891-0.21875 0.19922-2.2305 2.3516-3.5 5.3789-3.6406 8.6016zm5.1211 9.3086c0.57812-0.28125 1.1602-0.53125 1.7695-0.73047-1.0312-2.2812-1.6016-4.7812-1.6797-7.418h-5.2109c0.14062 3.2188 1.4102 6.25 3.6406 8.5898 0.070312 0.070313 0.14844 0.14062 0.21875 0.19922 0.19141-0.10156 0.37109-0.19922 0.57031-0.28906 0.23047-0.12109 0.46094-0.24219 0.69141-0.35156zm-0.39063 1.4492c0.14063 0.10937 0.28125 0.23047 0.42188 0.33984 0.73047 0.55859 1.5117 1.0508 2.3281 1.4492 0.53906 0.25 1.0781 0.48047 1.6406 0.66016 0.12109 0.039063 0.25 0.078125 0.37109 0.12109 0.17188 0.050781 0.33984 0.089844 0.51172 0.12891-1.0195-1.1602-1.8711-2.4492-2.5781-3.8281-0.050781 0.019531-0.10156 0.03125-0.14844 0.050781-0.875 0.28906-1.7383 0.64844-2.5469 1.0781zm13.5 3.4102c-0.98047 0.35938-2.0117 0.60938-3.0781 0.75-0.60938 0.070312-1.2383 0.12109-1.8789 0.12109-0.62891 0-1.2617-0.050782-1.8711-0.12109-2.4492-0.30859-4.6992-1.25-6.6094-2.6484 0.070313 0.78125 0.17188 1.5508 0.30859 2.3203 1.5703 8.6484 8.3711 5.3516 12.988 1.25-0.14063-0.54297-0.078126-1.1016 0.14062-1.6719zm0.55859-1.5-0.85938-1.0117c-0.41016 0.62109-0.87891 1.2305-1.3789 1.8008 0.17188-0.039062 0.33984-0.078125 0.51172-0.12891 0.12109-0.039062 0.23828-0.078125 0.37109-0.12109 0.45703-0.14844 0.90625-0.32812 1.3555-0.53906zm11.98-1.7305-2.8086-1.1094 6.8203-5.7188 2.6484 2.1094 1.3594-0.96094c0.078125-0.058594 0.17188-0.12891 0.26172-0.19922 1.1211-0.94922 1.8906-2.3086 2.0508-3.6289 0.10938-0.98047-0.12891-1.8711-0.69922-2.5391-0.30078-0.35156-0.66016-0.62891-1.0898-0.82031-0.92188 1.5-1.9609 2.7305-3.1719 3.75-0.21875 0.17969-0.44141 0.35937-0.67188 0.53125-0.5 0.37109-1.1914 0.33984-1.6406-0.070313-0.28125-0.25-0.42969-0.60156-0.42969-0.98047 0.019531-0.37109 0.17969-0.71094 0.46094-0.94922l0.10156-0.078126c0.82031-0.69922 1.5586-1.4609 2.1484-2.25-0.73828 0.25-1.4414 0.62109-2.0312 1.1211-0.078125 0.070313-0.17188 0.14844-0.25 0.23828l-7.5 7.418-3.0586 3.0312 0.76953 0.39062 1 0.48828-4.6289 3.8984-0.85156-1.0117-0.023438-0.023437-0.046875 0.050781c-0.82812 1.0586-0.85938 2.0312-0.12891 2.9102 1.1289 1.3398 2.6016 0.69141 3.6211-0.089843zm11.82 0.44922-7.8008-6.2188-5.25 4.3984 11.488 4.5195c0.53906 0.21875 1.1406 0.10938 1.5898-0.26172 0.089844-0.078125 0.17969-0.17188 0.25-0.28125 0.51172-0.66406 0.38281-1.6133-0.27734-2.1562zm-14.641 21.852c0.42188 0 0.75-0.33984 0.75-0.75 0-0.42188-0.32812-0.76172-0.75-0.76172h-13.078c-0.42188 0-0.75 0.33984-0.75 0.76172 0 0.41016 0.32812 0.75 0.75 0.75z"/>
</svg>